# xmcd CD database file
#
# Track frame offsets:
#	150
#	18590
#	40471
#	63672
#	77108
#	100261
#	117151
#	135354
#	156406
#	173080
#	190368
#
# Disc length: 2725 seconds
#
# Revision: 0
# Processed by: cddbd v1.5.2PL0 Copyright (c) Steve Scherf et al.
# Submitted via: CDex 1.70beta2
#
DISCID=940aa30b
DTITLE=Serieus Genomen - Brand New Oldtimers
DYEAR=2007
DGENRE=Jazz
TTITLE0=Tanga
TTITLE1=Is you si or is you aint my baby
TTITLE2=Liberated Brother
TTITLE3=Parry Mason Theme
TTITLE4=Summertime
TTITLE5=Melancholy Serenade
TTITLE6=All Blues
TTITLE7=Nobody Knows You
TTITLE8=Cantaloupe Island
TTITLE9=The Mooche
TTITLE10=Dont get around much anymore
EXTD=YEAR: 2007
EXTT0=
EXTT1=
EXTT2=
EXTT3=
EXTT4=
EXTT5=
EXTT6=
EXTT7=
EXTT8=
EXTT9=
EXTT10=
PLAYORDER=
